<svg xmlns="http://www.w3.org/2000/svg" width="48" height="48" viewBox="0 0 48 48" fill="none">
  <defs>
    <linearGradient id="g" x1="8" y1="4" x2="40" y2="44" gradientUnits="userSpaceOnUse">
      <stop stop-color="#7c72ff"/>
      <stop offset="1" stop-color="#5147e8"/>
    </linearGradient>
  </defs>
  <rect x="2" y="2" width="44" height="44" rx="11" fill="url(#g)"/>
  <rect x="2" y="2" width="44" height="44" rx="11" fill="white" opacity="0.06"/>
  <path d="M28.5 13H18.5C17.4 13 16.5 13.9 16.5 15V33C16.5 34.1 17.4 35 18.5 35H29.5C30.6 35 31.5 34.1 31.5 33V20L28.5 13Z" fill="white" fill-opacity="0.95"/>
  <path d="M28.5 13V18.2C28.5 19.18 29.32 20 30.3 20H31.5L28.5 13Z" fill="#c9c4ff"/>
  <path d="M20 25.5H28" stroke="#5147e8" stroke-width="1.8" stroke-linecap="round"/>
  <path d="M20 29.5H25.5" stroke="#5147e8" stroke-width="1.8" stroke-linecap="round"/>
</svg>
